<svg id="Capa_1" data-name="Capa 1" xmlns="http://www.w3.org/2000/svg" viewBox="0 0 200.65 126.25"><path d="M.67,88.72c1.22-1.57,2.84-1.94,4.77-1.93,8.89.08,17.77,0,26.66,0,.32,0,.65,0,1,0,2.4.06,3.8,1.25,3.79,3.23S35.48,93.2,33,93.23c-3.24,0-6.49,0-9.73,0H20.42V100c.57,0,1.13.13,1.69.13,4.86,0,9.73,0,14.59,0a2,2,0,0,0,2.2-1.33C42.48,91.2,48.57,86.94,57,86.92s14.57,4.25,18.3,11.91A2.5,2.5,0,0,0,77,100.09c20.75.07,41.5,0,62.26,0,.3,0,.61-.08,1.1-.14V97.83q0-10.11,0-20.23c0-2.57,1.18-4,3.17-4s3.11,1.42,3.11,4.07c0,6.87,0,13.75,0,20.62a6.78,6.78,0,0,0,.57,1.83c.49-.48,1.17-.87,1.46-1.46,3.7-7.49,9.72-11.68,18-11.71s14.52,4.16,18.15,11.77a2.12,2.12,0,0,0,2.31,1.48c2.07-.09,4.14,0,6.33,0V86.69c-1.45-.08-2.93-.1-4.39-.25a9.54,9.54,0,0,1-8.75-9.09c-.12-2.39-.1-4.8,0-7.2.07-2.1,1.22-3.18,3.34-3.21,3,0,6.06,0,9.1,0-.26-3.09-4.17-6.91-8.67-7-12.38-.13-24.76,0-37.48,0,0,1.15,0,2.22,0,3.29-.09,2.12-1.33,3.37-3.22,3.32a3.07,3.07,0,0,1-3-3.33c0-3.5,0-7,0-10.51v-46h-120c0,.81-.11,1.62-.11,2.44q0,26.16,0,52.33c0,.72,0,1.43,0,2.14a3,3,0,0,1-3.05,2.89A3.1,3.1,0,0,1,14,63.73a11.43,11.43,0,0,1,0-1.55q0-27.15,0-54.28c0-5,2.48-7.52,7.5-7.52h117.9c4.84,0,7.31,2.43,7.36,7.24,0,1.93,0,3.86,0,6H149c6.87,0,13.75,0,20.62,0,7.93,0,13.45,5.41,13.71,13.31,0,.71,0,1.43,0,2.14.11,1.91-.35,3.49-2.43,4.17,1.65,6.57,3.25,13,4.94,19.46A2.19,2.19,0,0,0,187.17,54c8.19,2.31,12.75,8.28,12.75,16.82q0,15.86,0,31.71c0,2.87-1.11,4-4,4-3,0-6.06,0-9.05,0-2.15,12.77-9.27,19.85-19.84,19.89-10.85,0-18-6.9-20.22-19.79H76.93c-.32,6.38-2.75,11.72-7.8,15.66a19.67,19.67,0,0,1-13.24,4.13c-9.93-.33-17-7.69-18.84-19.89-5.13,0-10.3,0-15.47,0a12.11,12.11,0,0,1-2.69-.28,6.35,6.35,0,0,1-5-6.18c0-2.19,0-4.38,0-6.85-2.85,0-5.55-.08-8.24,0-2,.07-3.7-.26-5-1.83Zm178.74-35.2c-1.55-6.22-3.09-12.21-4.5-18.24-.35-1.46-.91-2-2.45-1.94-7.91.08-15.82,0-23.73,0-.63,0-1.25.07-1.93.11v20Zm-109,53.2A13.26,13.26,0,0,0,57.08,93.28a13.48,13.48,0,0,0-13.55,13.36A13.68,13.68,0,0,0,57,120.18,13.49,13.49,0,0,0,70.44,106.72Zm96.32-13.44a13.37,13.37,0,0,0-13.36,13.5,13.47,13.47,0,1,0,26.93-.2A13.4,13.4,0,0,0,166.76,93.28Zm10.07-66.46c.16-4-2.73-6.76-7.08-6.78-7.13-.05-14.25,0-21.38,0-.5,0-1,.09-1.54.14v6.65Zm16.86,46.49h-6.81c-.88,5.86.94,7.65,6.81,6.62V73.31Z"/><path d="M77.08,58.93c3.27-3.29,6.45-6.51,9.65-9.71q8.65-8.67,17.33-17.33a6.33,6.33,0,0,1,1.32-1.12,3.12,3.12,0,0,1,4.21,4.36,7.65,7.65,0,0,1-1.28,1.45L80.12,64.77c-2.47,2.47-3.77,2.47-6.2,0-5.09-5.09-10.23-10.13-15.21-15.32A4.76,4.76,0,0,1,57.44,46c.48-2.6,3.39-3.13,5.44-1.1,4.21,4.13,8.36,8.33,12.54,12.49C75.91,57.85,76.43,58.32,77.08,58.93Z"/><path d="M106.91,86.83c7.38,0,14.77,0,22.16,0a7,7,0,0,1,2.46.38,2.53,2.53,0,0,1,1.75,3.09A6.62,6.62,0,0,1,131.14,93c-.41.35-1.24.26-1.88.26H84.73c-.26,0-.52,0-.78,0-2.09-.15-3.47-1.43-3.46-3.2A3.31,3.31,0,0,1,84,86.84c1.3-.06,2.59,0,3.89,0Z"/><path d="M30.34,79.85q-9.53,0-19,0c-2.62,0-4-1.13-4-3.16s1.45-3.13,4.05-3.13q19.13,0,38.27,0c2.31,0,3.74,1.08,3.92,2.9S52.26,79.83,50,79.84C43.42,79.87,36.88,79.85,30.34,79.85Z"/><path d="M50.52,106.48a6.51,6.51,0,1,1,6.41,6.72A6.6,6.6,0,0,1,50.52,106.48Z"/><path d="M166.84,100.17a6.52,6.52,0,1,1-6.52,6.42A6.65,6.65,0,0,1,166.84,100.17Z"/></svg>