<svg id="Capa_1" data-name="Capa 1" xmlns="http://www.w3.org/2000/svg" viewBox="0 0 119.79 77.27"><defs><style>.cls-1{fill:#fff;}</style></defs><polygon class="cls-1" points="92.88 56.52 87.8 56.52 87.8 9.2 83.25 9.2 83.25 23.29 60.34 6.41 35.29 26.75 35.29 56.52 30.21 56.52 30.21 24.33 60.19 0 78.17 13.25 78.17 4.12 92.88 4.12 92.88 56.52"/><rect class="cls-1" x="68.22" y="24.87" width="6.39" height="8.55"/><rect class="cls-1" x="45.59" y="24.87" width="19.7" height="8.55"/><rect class="cls-1" x="45.59" y="35.65" width="6.41" height="8.55"/><rect class="cls-1" x="54.93" y="35.65" width="19.68" height="8.55"/><rect class="cls-1" x="68.22" y="46.26" width="6.39" height="8.55"/><rect class="cls-1" x="45.59" y="46.26" width="19.7" height="8.55"/><path class="cls-1" d="M119.55,77.24C104.78,67.51,83.42,61.4,59.65,61.4S14.53,67.51-.24,77.24C16,69.87,36.9,65.44,59.65,65.44S103.27,69.87,119.55,77.24Z" transform="translate(0.24 0.03)"/></svg>