<?xml version="1.0" encoding="utf-8"?>
<!-- Generator: Adobe Illustrator 24.1.3, SVG Export Plug-In . SVG Version: 6.00 Build 0)  -->
<svg version="1.1" id="Capa_1" xmlns="http://www.w3.org/2000/svg" xmlns:xlink="http://www.w3.org/1999/xlink" x="0px" y="0px"
	 viewBox="0 0 176.4 23.7" style="enable-background:new 0 0 176.4 23.7;" xml:space="preserve">
<style type="text/css">
	.st0{fill:#FFFFFF;}
</style>
<g>
	<path class="st0" d="M6.5-0.1c4.2,0,5.8,1.8,5.8,5.2v1.1c0,2.5-0.8,4.1-3.1,4.7c2.6,0.6,3.6,2.5,3.6,5.1v2c0,3.6-2,5.6-6.1,5.6H0.5
		V-0.1H6.5z M5.8,10c2.4,0,3.6-0.7,3.6-3.1V5.5c0-2.1-0.8-3.1-2.9-3.1H3.5V10H5.8z M6.7,21.2c2.2,0,3.2-1,3.2-3.2v-2.1
		c0-2.6-1.2-3.5-3.8-3.5H3.5v8.8H6.7z"/>
	<path class="st0" d="M23.5,5.7c0-3.6,2-6,6.1-6c4.1,0,6.2,2.3,6.2,6v12.3c0,3.6-2,6-6.2,6c-4.1,0-6.1-2.4-6.1-6V5.7z M26.4,18.1
		c0,2.2,1,3.4,3.2,3.4c2.2,0,3.2-1.3,3.2-3.4V5.5c0-2.1-1-3.4-3.2-3.4c-2.1,0-3.2,1.3-3.2,3.4V18.1z"/>
	<path class="st0" d="M58.3,5.6v0.6h-2.8V5.5c0-2.1-0.9-3.4-3.1-3.4c-2.1,0-3.1,1.3-3.1,3.4c0,5.3,9,5.8,9,12.5c0,3.6-2,5.9-6,5.9
		s-6-2.3-6-5.9v-1.4h2.8v1.5c0,2.1,1,3.4,3.1,3.4c2.1,0,3.1-1.3,3.1-3.4c0-5.3-9-5.8-9-12.5c0-3.7,1.9-5.9,5.9-5.9
		C56.4-0.3,58.3,2,58.3,5.6z"/>
	<path class="st0" d="M81,5.7v2.1h-2.8V5.5c0-2.1-1-3.4-3.1-3.4c-2.1,0-3.1,1.3-3.1,3.4v12.5c0,2.1,1,3.4,3.1,3.4
		c2.2,0,3.1-1.3,3.1-3.4V15H81v2.9c0,3.6-1.9,6-6,6c-4.1,0-6-2.4-6-6V5.7c0-3.6,1.9-6,6-6C79-0.3,81,2.1,81,5.7z"/>
	<path class="st0" d="M91.6,5.7c0-3.6,2-6,6.1-6c4.1,0,6.2,2.3,6.2,6v12.3c0,3.6-2,6-6.2,6c-4.1,0-6.1-2.4-6.1-6V5.7z M94.5,18.1
		c0,2.2,1,3.4,3.2,3.4c2.2,0,3.2-1.3,3.2-3.4V5.5c0-2.1-1-3.4-3.2-3.4c-2.1,0-3.2,1.3-3.2,3.4V18.1z"/>
	<path class="st0" d="M124.8,23.6h-2.9l-4.4-18.9v18.9h-2.6V-0.1h4.2l4.4,18.9l4.2-18.9h4.2v23.7H129V4.6L124.8,23.6z"/>
	<path class="st0" d="M152.6,10.4v2.4H146v8.4h8v2.4h-11V-0.1h11v2.4h-8v8.1H152.6z"/>
	<path class="st0" d="M168.9,23.6V2.3h-4.9v-2.4h12.9v2.4h-4.9v21.3H168.9z"/>
</g>
</svg>
